<svg xmlns="http://www.w3.org/2000/svg" viewBox="0 0 640 260" width="640" height="260">
<defs>
<linearGradient id="bg" x1="0" y1="0" x2="1" y2="1"><stop offset="0" stop-color="#111a2b"/><stop offset="1" stop-color="#0a101c"/></linearGradient>
<linearGradient id="ac" x1="0" y1="0" x2="1" y2="1"><stop offset="0" stop-color="#34D399"/><stop offset="1" stop-color="#06B6D4"/></linearGradient>
<linearGradient id="m0" x1="0" y1="0" x2="1" y2="1"><stop offset="0" stop-color="#34D399"/><stop offset="1" stop-color="#06B6D4"/></linearGradient>
<linearGradient id="m1" x1="1" y1="0" x2="0" y2="1"><stop offset="0" stop-color="#06B6D4"/><stop offset="1" stop-color="#34D399"/></linearGradient>
<radialGradient id="glow" cx=".5" cy=".5" r=".5"><stop offset="0" stop-color="#34D399" stop-opacity=".28"/><stop offset="1" stop-color="#34D399" stop-opacity="0"/></radialGradient>
<pattern id="dots" width="16" height="16" patternUnits="userSpaceOnUse"><circle cx="2" cy="2" r="1" fill="#fff" fill-opacity=".07"/></pattern>
<clipPath id="clip"><rect x="0" y="0" width="640" height="260" rx="20"/></clipPath>
</defs>
<g clip-path="url(#clip)">
<rect width="640" height="260" fill="url(#bg)"/>
<rect width="640" height="260" fill="url(#dots)"/>
<circle cx="560" cy="40" r="170" fill="url(#glow)"/>
<circle cx="40" cy="260" r="120" fill="url(#glow)" fill-opacity=".5"/>
<rect x="0" y="0" width="640" height="4" fill="url(#ac)"/>
</g>
<rect x="1" y="1" width="638" height="258" rx="19" fill="none" stroke="url(#ac)" stroke-opacity=".45" stroke-width="1.5"/>
<text x="30" y="52" font-family="'SFMono-Regular',Consolas,'Courier New',monospace" font-size="12" letter-spacing="2" fill="#34D399">PROJECT 05</text>
<text x="30" y="112" font-family="'Segoe UI',Helvetica,Arial,sans-serif" font-size="27" font-weight="800" fill="#f1f5f9">Library</text><text x="30" y="144" font-family="'Segoe UI',Helvetica,Arial,sans-serif" font-size="27" font-weight="800" fill="#f1f5f9">Cashier POS</text>
<text x="30" y="172" font-family="'Segoe UI',Helvetica,Arial,sans-serif" font-size="14" fill="#8b9bb4">Point of sale for a library shop</text>
<rect x="30" y="184" width="43" height="24" rx="12" fill="#34D399" fill-opacity=".12" stroke="#34D399" stroke-opacity=".45"/><text x="51.5" y="200" text-anchor="middle" font-family="'Segoe UI',Helvetica,Arial,sans-serif" font-size="11.5" font-weight="600" fill="#34D399">POS</text><rect x="81" y="184" width="65" height="24" rx="12" fill="#34D399" fill-opacity=".12" stroke="#34D399" stroke-opacity=".45"/><text x="113.5" y="200" text-anchor="middle" font-family="'Segoe UI',Helvetica,Arial,sans-serif" font-size="11.5" font-weight="600" fill="#34D399">Retail</text>
<text x="30" y="238" font-family="'Segoe UI',Helvetica,Arial,sans-serif" font-size="13" font-weight="700" fill="#34D399">View project  →</text>
<g>
<rect x="378" y="44" width="236" height="172" rx="12" fill="#0b1322" stroke="#34D399" stroke-opacity=".35"/>
<path d="M378 56a12 12 0 0 1 12-12h212a12 12 0 0 1 12 12v14H378z" fill="#34D399" fill-opacity=".09"/>
<circle cx="394" cy="57" r="3.5" fill="#ff5f57"/><circle cx="406" cy="57" r="3.5" fill="#febc2e"/><circle cx="418" cy="57" r="3.5" fill="#28c840"/>
<rect x="440" y="52" width="150" height="10" rx="5" fill="#ffffff" fill-opacity=".07"/>
<rect x="394" y="86" width="110" height="7" rx="3.5" fill="#fff" fill-opacity=".45"/><rect x="570" y="86" width="28" height="7" rx="3.5" fill="#34D399" fill-opacity=".7"/><rect x="394" y="108" width="84" height="7" rx="3.5" fill="#fff" fill-opacity=".45"/><rect x="570" y="108" width="28" height="7" rx="3.5" fill="#34D399" fill-opacity=".7"/><rect x="394" y="130" width="126" height="7" rx="3.5" fill="#fff" fill-opacity=".45"/><rect x="570" y="130" width="28" height="7" rx="3.5" fill="#34D399" fill-opacity=".7"/><rect x="394" y="152" width="70" height="7" rx="3.5" fill="#fff" fill-opacity=".45"/><rect x="570" y="152" width="28" height="7" rx="3.5" fill="#34D399" fill-opacity=".7"/><rect x="394" y="172" width="204" height="1.5" fill="#fff" fill-opacity=".12"/><rect x="394" y="182" width="204" height="26" rx="8" fill="url(#m0)"/><text x="496" y="199" text-anchor="middle" font-family="'Segoe UI',Helvetica,Arial,sans-serif" font-size="12" font-weight="800" letter-spacing="2" fill="#07101c">PAY</text>
</g>
</svg>